<svg id="Capa_1" data-name="Capa 1" xmlns="http://www.w3.org/2000/svg" viewBox="0 0 180 177.7"><defs><style>.cls-1{fill:#e14a20;}.cls-2{font-size:105px;fill:#e14a1f;font-family:Lato-Heavy, Lato;font-weight:800;}</style></defs><path class="cls-1" d="M89.8,169.94a82.78,82.78,0,0,1-58.92-24.37L2.6,117.3l13.21-13.21,28.27,28.27a64.73,64.73,0,0,0,91.44,0l28.27-28.27L177,117.3l-28.27,28.27A82.8,82.8,0,0,1,89.8,169.94Z"/><path class="cls-1" d="M135.52,48.23a64.65,64.65,0,0,0-91.44,0L15.81,76.5,2.6,63.3,30.88,35a83.35,83.35,0,0,1,117.85,0L177,63.3,163.79,76.5Z"/><text class="cls-2" transform="translate(53.06 127.05)">D</text></svg>