<?xml version="1.0" encoding="utf-8"?>
<!-- Generator: Adobe Illustrator 21.0.0, SVG Export Plug-In . SVG Version: 6.00 Build 0)  -->
<svg version="1.1" id="F" xmlns="http://www.w3.org/2000/svg" xmlns:xlink="http://www.w3.org/1999/xlink" x="0px" y="0px"
	 viewBox="0 0 300 300" style="enable-background:new 0 0 300 300;" xml:space="preserve">
<style type="text/css">
	.st0{fill:none;}
	.st1{fill:#EB191C;}
	.st2{enable-background:new    ;}
</style>
<rect y="0" class="st0" width="300" height="300"/>
<g>
	<path class="st1" d="M150.1,285.1c-37.2,0-72-14.4-98.2-40.6L4.7,197.3l22-22l47.1,47.1c20.3,20.3,47.4,31.5,76.2,31.5
		s55.9-11.2,76.2-31.5l47.1-47.1l22,22l-47.1,47.1C222.2,270.7,187.3,285.1,150.1,285.1z"/>
	<path class="st1" d="M226.3,82.2c-20.4-20.4-47.4-31.6-76.2-31.6S94.2,61.8,73.9,82.2l-47.1,47.1l-22-22l47.1-47.1
		C78.1,34,113,19.5,150.1,19.5s72,14.5,98.2,40.7l47.1,47.1l-22,22L226.3,82.2z"/>
</g>
<g>
	<g class="st2">
		<path class="st1" d="M195.3,88.7v27.8H145v22.1h37.1v26.5H145v49.2h-34.9V88.7H195.3z"/>
	</g>
</g>
</svg>
