<svg id="Capa_1" data-name="Capa 1" xmlns="http://www.w3.org/2000/svg" xmlns:xlink="http://www.w3.org/1999/xlink" viewBox="0 0 180 177.7"><defs><style>.cls-1{fill:url(#Degradado_sin_nombre_2);}.cls-2{font-size:104.66px;fill:#078445;font-family:Lato-Black, Lato;font-weight:800;letter-spacing:-0.03em;}.cls-3{fill:url(#Degradado_sin_nombre_2-2);}</style><linearGradient id="Degradado_sin_nombre_2" x1="0.7" y1="44.9" x2="168.39" y2="44.9" gradientUnits="userSpaceOnUse"><stop offset="0" stop-color="#ffe2a0"/><stop offset="0" stop-color="#f8e09d"/><stop offset="0" stop-color="#cfd28c"/><stop offset="0" stop-color="#a9c57d"/><stop offset="0" stop-color="#89ba70"/><stop offset="0" stop-color="#6db065"/><stop offset="0" stop-color="#57a95c"/><stop offset="0" stop-color="#46a355"/><stop offset="0" stop-color="#3b9f51"/><stop offset="0" stop-color="#349d4e"/><stop offset="0" stop-color="#329c4d"/></linearGradient><linearGradient id="Degradado_sin_nombre_2-2" x1="1.11" y1="50.52" x2="168.8" y2="50.52" gradientTransform="translate(179.77 181.08) rotate(-179.48)" xlink:href="#Degradado_sin_nombre_2"/></defs><path class="cls-1" d="M134,49.39a62.17,62.17,0,0,0-87.92,0L18.88,76.58,6.18,63.88,33.37,36.69a80.14,80.14,0,0,1,113.31,0l27.19,27.19-12.7,12.7Z"/><text class="cls-2" transform="translate(52.68 120.83)">A</text><path class="cls-3" d="M45.88,124.84a62.17,62.17,0,0,0,87.92.8L161.23,98.7l12.58,12.82-27.43,26.93a80.13,80.13,0,0,1-113.31-1L6.13,110,19,97.4Z"/></svg>