<svg id="Capa_1" data-name="Capa 1" xmlns="http://www.w3.org/2000/svg" viewBox="0 0 180 177.7"><defs><style>.cls-1{fill:#d39c5c;}.cls-2,.cls-3{fill:#d18e53;}.cls-3{font-size:105px;font-family:Lato-Heavy, Lato;font-weight:800;}</style></defs><path class="cls-1" d="M91.43,169.84a83.9,83.9,0,0,1-59.74-24.7L3,116.48l13.39-13.39,28.67,28.66a65.62,65.62,0,0,0,92.7,0l28.66-28.66,13.39,13.39-28.66,28.66A83.92,83.92,0,0,1,91.43,169.84Z"/><path class="cls-2" d="M137.78,46.45a65.57,65.57,0,0,0-92.7,0L16.41,75.12,3,61.73,31.69,33.07a84.47,84.47,0,0,1,119.48,0l28.66,28.66L166.44,75.12Z"/><text class="cls-3" transform="translate(52.65 128.05)">C</text></svg>