<svg id="Capa_1" data-name="Capa 1" xmlns="http://www.w3.org/2000/svg" xmlns:xlink="http://www.w3.org/1999/xlink" viewBox="0 0 180 177.7"><defs><style>.cls-1{fill:#e0b240;}.cls-2{fill:url(#Degradado_sin_nombre_14);}.cls-3{font-size:105px;fill:#e0b241;font-family:Lato-Heavy, Lato;font-weight:800;}</style><linearGradient id="Degradado_sin_nombre_14" x1="1.24" y1="43.41" x2="178.76" y2="43.41" gradientUnits="userSpaceOnUse"><stop offset="0" stop-color="#feeaa2"/><stop offset="0" stop-color="#ebc766"/><stop offset="0" stop-color="#e0b241"/></linearGradient></defs><path class="cls-1" d="M90,170.05a84.26,84.26,0,0,1-60-24.8L1.24,116.47,14.68,103l28.78,28.78a65.91,65.91,0,0,0,93.08,0L165.32,103l13.44,13.44L150,145.25A84.25,84.25,0,0,1,90,170.05Z"/><path class="cls-2" d="M136.54,48.16a65.84,65.84,0,0,0-93.08,0L14.68,76.94,1.24,63.5,30,34.72a84.84,84.84,0,0,1,120,0L178.76,63.5,165.32,76.94Z"/><text class="cls-3" transform="translate(57.67 128.15)">B</text></svg>