<svg id="Capa_1" data-name="Capa 1" xmlns="http://www.w3.org/2000/svg" viewBox="0 0 2880 1563.05"><defs><style>.cls-1{font-size:67px;font-family:Lato-Heavy, Lato;font-weight:800;}.cls-1,.cls-31{fill:#f0931c;}.cls-2{letter-spacing:-0.02em;}.cls-3{letter-spacing:-0.01em;}.cls-4{letter-spacing:-0.07em;}.cls-5{letter-spacing:-0.03em;}.cls-6{letter-spacing:-0.02em;}.cls-7{letter-spacing:-0.01em;}.cls-8{letter-spacing:-0.06em;}.cls-9{letter-spacing:-0.02em;}.cls-10{letter-spacing:0em;}.cls-11{letter-spacing:-0.02em;}.cls-12{letter-spacing:-0.01em;}.cls-13{font-size:101px;}.cls-13,.cls-14{fill:#504f4f;font-family:Calibri-Bold, Calibri;font-weight:700;}.cls-14{font-size:87px;}.cls-15,.cls-16,.cls-19,.cls-20{font-family:Calibri-Light, Calibri;font-weight:300;}.cls-16{letter-spacing:-0.01em;}.cls-17{font-family:Calibri;font-weight:400;}.cls-18{letter-spacing:0em;}.cls-19{letter-spacing:0em;}.cls-20{letter-spacing:-0.08em;}.cls-21{opacity:0.7;}.cls-22,.cls-25,.cls-26,.cls-28,.cls-29,.cls-30,.cls-32{fill:none;}.cls-22,.cls-24,.cls-25,.cls-26,.cls-29,.cls-30,.cls-32{stroke:#030202;}.cls-22,.cls-24,.cls-25,.cls-26,.cls-32{stroke-linecap:round;}.cls-22,.cls-24,.cls-26,.cls-29,.cls-32{stroke-miterlimit:10;}.cls-22,.cls-25,.cls-29,.cls-30{stroke-width:1.64px;}.cls-23,.cls-24,.cls-27{fill:#030202;}.cls-24,.cls-26{stroke-width:0.82px;}.cls-25,.cls-30{stroke-linejoin:round;}.cls-27{font-size:20.26px;font-family:Poppins-Regular, Poppins;letter-spacing:-0.05em;}</style></defs><text class="cls-1" transform="translate(408.49 935.45)"><tspan class="cls-2">M</tspan><tspan x="62.71" y="0">edimos de </tspan><tspan class="cls-3" x="385.15" y="0">f</tspan><tspan x="408.6" y="0">orma INS</tspan><tspan class="cls-4" x="688.32" y="0">T</tspan><tspan x="724.03" y="0">AN</tspan><tspan class="cls-4" x="822.89" y="0">T</tspan><tspan x="858.6" y="0">ÁNE</tspan><tspan class="cls-5" x="995.91" y="0">A</tspan><tspan class="cls-6" x="1040.67" y="0" xml:space="preserve"> y</tspan><tspan x="1088.87" y="0" xml:space="preserve"> NO INT</tspan><tspan class="cls-7" x="1339.45" y="0">R</tspan><tspan x="1382.53" y="0">USI</tspan><tspan class="cls-8" x="1489.7" y="0">V</tspan><tspan class="cls-5" x="1532.78" y="0">A</tspan><tspan x="1577.54" y="0" xml:space="preserve"> a la S</tspan><tspan class="cls-9" x="1747.81" y="0">E</tspan><tspan class="cls-10" x="1785.26" y="0">GURI</tspan><tspan class="cls-11" x="1947.57" y="0">D</tspan><tspan x="1996.98" y="0">AD</tspan><tspan x="811.5" y="80.4" xml:space="preserve"> de tu emp</tspan><tspan class="cls-12" x="1127.33" y="80.4">r</tspan><tspan x="1151.79" y="80.4">esa. </tspan></text><text class="cls-13" transform="translate(377.46 660.53)"><tspan xml:space="preserve">BIENVENIDO A IRIS  </tspan></text><text class="cls-14" transform="translate(371.46 749.5)">“I<tspan class="cls-15" x="61.04" y="0">NDICADOR</tspan><tspan class="cls-16" x="442.22" y="0">E</tspan><tspan class="cls-15" x="483.9" y="0">S DE</tspan><tspan class="cls-17" x="638.27" y="0"> </tspan><tspan x="657.94" y="0">R</tspan><tspan class="cls-15" x="706.92" y="0">I</tspan><tspan class="cls-16" x="728.16" y="0">E</tspan><tspan class="cls-15" x="769.83" y="0">SGO</tspan><tspan class="cls-17" x="920.72" y="0"> </tspan><tspan class="cls-18" x="940.39" y="0">I</tspan><tspan class="cls-19" x="963.58" y="0">N</tspan><tspan class="cls-16" x="1019.11" y="0">F</tspan><tspan class="cls-15" x="1058.27" y="0">ORM</tspan><tspan class="cls-20" x="1234.99" y="0">Á</tspan><tspan class="cls-15" x="1277.22" y="0">TI</tspan><tspan class="cls-16" x="1340.51" y="0">C</tspan><tspan class="cls-15" x="1386.22" y="0">O DE </tspan><tspan x="1577.81" y="0">S</tspan><tspan class="cls-16" x="1618.93" y="0">E</tspan><tspan class="cls-15" x="1660.6" y="0">GURI</tspan><tspan class="cls-16" x="1838.04" y="0">D</tspan><tspan class="cls-19" x="1890" y="0">AD</tspan><tspan x="1991.82" y="0">”</tspan></text><g class="cls-21"><polyline class="cls-22" points="718.84 1401.85 707.12 1413.57 695.4 1401.84"/><polyline class="cls-22" points="581.24 1418.26 569.52 1406.55 557.8 1418.27"/><polyline class="cls-22" points="665.84 1432.85 665.84 1449.27 605.86 1449.27 605.86 1399.65 665.84 1399.65 665.84 1425.69"/><path class="cls-22" d="M612.92,1399.69v-17.8a22.93,22.93,0,0,1,45.85,0v17.71"/><path class="cls-22" d="M641.67,1433.36l-3.6-11.45a4.74,4.74,0,0,0-2.22-8.94c-2.63,0-4.76,1.32-4.76,4,0,1.82,1,4.19,2.53,5l-3.6,11.45"/><path class="cls-22" d="M672.81,1470.53a69.24,69.24,0,0,1-103.07-47.9c-1.16-10.18-.22-16.08-.22-16.08"/><path class="cls-22" d="M569.74,1398.73a69.26,69.26,0,0,1,136.44,0,58.56,58.56,0,0,1,.94,7.78c.15,2.65,0,6.88,0,6.88"/><line class="cls-22" x1="-36.61" y1="1468.93" x2="187.33" y2="1468.93"/><line class="cls-22" x1="-59.6" y1="1482.31" x2="175.33" y2="1482.31"/><line class="cls-22" x1="-378.18" y1="1495.69" x2="167.57" y2="1495.69"/><line class="cls-22" x1="-378.18" y1="1509.07" x2="161.22" y2="1509.07"/><line class="cls-22" x1="-378.18" y1="1522.45" x2="155.57" y2="1522.45"/><polyline class="cls-22" points="-378.18 1535.83 41.84 1535.83 70.16 1564.15 149.93 1564.15"/><polyline class="cls-22" points="-378.18 1549.21 32.24 1549.21 46.52 1563.49"/><line class="cls-22" x1="-378.18" y1="1562.59" x2="45.49" y2="1562.59"/><line class="cls-22" x1="200.03" y1="1455.94" x2="-21.52" y2="1455.94"/><line class="cls-22" x1="-36.61" y1="1401.37" x2="54.84" y2="1401.37"/><polyline class="cls-22" points="-0.15 1477.3 -21.52 1455.93 -0.15 1434.57"/><line class="cls-22" x1="41.96" y1="1535.83" x2="152.4" y2="1535.83"/><line class="cls-22" x1="55.37" y1="1549.21" x2="150.63" y2="1549.21"/><line class="cls-22" x1="511.98" y1="1377.4" x2="418.77" y2="1377.4"/><path class="cls-22" d="M743.61,1336.49c-40.28-57.69-119.78-72.82-178.5-33.51a129.44,129.44,0,0,0-56.61,92.64"/><path class="cls-22" d="M709,1518.87c-59.39,39.4-139.8,23.34-179.49-35.95q-2.25-3.36-4.26-6.81"/><line class="cls-22" x1="1107.91" y1="1461" x2="1161.89" y2="1461"/><line class="cls-22" x1="1087.52" y1="1461" x2="1099.07" y2="1461"/><polyline class="cls-22" points="743.72 1461 1022.96 1461 1053.22 1461 1079.23 1461"/><path class="cls-22" d="M713.52,1500.44a117,117,0,0,0,30.2-39.44"/><path class="cls-22" d="M687.49,1304.31A117.71,117.71,0,1,0,707.78,1505"/><path class="cls-22" d="M660.15,1513.61a105.71,105.71,0,1,1,79.18-126.81"/><path class="cls-22" d="M668.87,1499a93.71,93.71,0,1,1,46.27-140.36"/><path class="cls-22" d="M689.39,1488.64a95.16,95.16,0,0,1-12.13,6.89"/><path class="cls-22" d="M569.37,1456.22a81.71,81.71,0,1,1,135.8-90.9"/><line class="cls-22" x1="735.18" y1="1476.11" x2="1079.26" y2="1476.11"/><line class="cls-22" x1="724" y1="1490.37" x2="910.45" y2="1490.37"/><polyline class="cls-22" points="715.54 1504.62 909.98 1504.62 930.64 1504.62 1140.11 1504.62"/><line class="cls-22" x1="708.96" y1="1518.87" x2="1137.07" y2="1518.87"/><line class="cls-22" x1="681.04" y1="1533.12" x2="1131.85" y2="1533.12"/><line class="cls-22" x1="534.27" y1="1547.37" x2="1131.85" y2="1547.37"/><line class="cls-22" x1="531.63" y1="1533.12" x2="593.42" y2="1533.12"/><line class="cls-22" x1="527.55" y1="1518.87" x2="565.57" y2="1518.87"/><line class="cls-22" x1="521.71" y1="1504.62" x2="547.2" y2="1504.62"/><line class="cls-22" x1="512.94" y1="1490.37" x2="534.84" y2="1490.37"/><line class="cls-22" x1="503.58" y1="1476.11" x2="525.21" y2="1476.11"/><line class="cls-22" x1="490.06" y1="1461.86" x2="530.61" y2="1461.86"/><line class="cls-22" x1="743.72" y1="1442.82" x2="840.22" y2="1442.82"/><line class="cls-22" x1="1103.57" y1="1442.82" x2="1175.24" y2="1442.82"/><line class="cls-22" x1="960.05" y1="1442.82" x2="1077.66" y2="1442.82"/><line class="cls-22" x1="465.66" y1="1443.68" x2="524.31" y2="1443.68"/><line class="cls-22" x1="746.43" y1="1424.64" x2="879.68" y2="1424.64"/><line class="cls-22" x1="392.87" y1="1425.5" x2="520.74" y2="1425.5"/><path class="cls-22" d="M396.46,1425.5a138.66,138.66,0,0,1,138.66,138.66"/><path class="cls-22" d="M257.8,1564.16A138.66,138.66,0,0,1,396.46,1425.5"/><path class="cls-22" d="M245.81,1564.16A138.66,138.66,0,0,1,384.47,1425.5"/><path class="cls-22" d="M233.82,1564.16A138.66,138.66,0,0,1,372.48,1425.5"/><path class="cls-22" d="M221.83,1564.16A138.66,138.66,0,0,1,360.49,1425.5"/><path class="cls-22" d="M209.85,1564.16A138.66,138.66,0,0,1,348.51,1425.5"/><path class="cls-22" d="M197.86,1564.16A138.66,138.66,0,0,1,336.52,1425.5"/><path class="cls-22" d="M185.87,1564.16A138.66,138.66,0,0,1,324.53,1425.5"/><path class="cls-22" d="M173.88,1564.16A138.66,138.66,0,0,1,312.54,1425.5"/><path class="cls-22" d="M161.89,1564.16A138.66,138.66,0,0,1,300.55,1425.5"/><path class="cls-22" d="M149.91,1564.16A138.66,138.66,0,0,1,288.56,1425.5"/><path class="cls-22" d="M269.8,1564.16a126.66,126.66,0,1,1,253.31,0"/><path class="cls-22" d="M281.8,1564.16a114.66,114.66,0,1,1,229.31,0"/><path class="cls-22" d="M293.8,1564.16a102.66,102.66,0,0,1,205.31,0"/><path class="cls-22" d="M305.8,1564.16a90.66,90.66,0,0,1,181.31,0"/><path class="cls-22" d="M317.81,1564.16a78.65,78.65,0,0,1,157.3,0"/><path class="cls-22" d="M329.81,1564.16a66.65,66.65,0,0,1,133.3,0"/><path class="cls-22" d="M341.81,1564.16a54.65,54.65,0,0,1,109.3,0"/><path class="cls-22" d="M353.81,1564.16a42.65,42.65,0,1,1,85.29,0"/><path class="cls-22" d="M365.81,1564.16a30.65,30.65,0,1,1,61.29,0"/><path class="cls-22" d="M377.81,1564.16a18.65,18.65,0,0,1,37.29,0"/><path class="cls-22" d="M1131.85,1563.05c0-104,84.29-188.25,188.26-188.25s188.25,84.28,188.25,188.25h300.85"/><path class="cls-22" d="M1148.14,1563.05c0-94.82,77.15-172,172-172s172,77.14,172,172"/><path class="cls-22" d="M1164.44,1563.05c0-85.83,69.83-155.66,155.67-155.66s155.66,69.83,155.66,155.66"/><path class="cls-22" d="M1180.73,1563.05c0-76.85,62.53-139.37,139.38-139.37s139.37,62.52,139.37,139.37"/><path class="cls-22" d="M1197,1563.05a123.08,123.08,0,0,1,246.16,0"/><path class="cls-22" d="M1213.32,1563.05a106.79,106.79,0,0,1,213.57,0"/><path class="cls-22" d="M1229.62,1563.05a90.49,90.49,0,0,1,181,0"/><path class="cls-22" d="M1245.91,1563.05a74.2,74.2,0,0,1,148.39,0"/><path class="cls-22" d="M1262.2,1563.05a57.91,57.91,0,0,1,115.81,0"/><path class="cls-22" d="M1278.5,1563.05a41.61,41.61,0,0,1,83.21,0"/><path class="cls-22" d="M1294.79,1563.05a25.32,25.32,0,0,1,50.63,0"/><polyline class="cls-22" points="711.89 1510.82 685.84 1469.97 678.27 1487.63 674.51 1514.76"/><polyline class="cls-22" points="700.19 1454.82 700.19 1472.88 719.35 1512.14"/><polyline class="cls-22" points="668.56 1510.27 669.29 1479.03 679.32 1454.82 693.67 1454.82"/><polyline class="cls-22" points="679.32 1454.82 679.32 1416.91 691.16 1408.48 708.01 1425.83 708.01 1430.74 700.19 1430.74 700.19 1444.94"/><path class="cls-22" d="M690.85,1459.15l9.34-14.21v-14.2H708v16.11l-13.37,12.67a4.07,4.07,0,1,1-3.79-.37Z"/><path class="cls-22" d="M710.46,1514.19a4.68,4.68,0,1,0,4.68-4.68A4.68,4.68,0,0,0,710.46,1514.19Z"/><path class="cls-22" d="M665.21,1514.76a4.68,4.68,0,1,0,4.68-4.68A4.69,4.69,0,0,0,665.21,1514.76Z"/><path class="cls-22" d="M661.88,1422.58a4.05,4.05,0,0,1,3.68,5.79l8.61,9.23,5.15-20.69V1441l-4.7,4.94L664,1430.11a4,4,0,0,1-2.12.62,4.08,4.08,0,1,1,0-8.15Z"/><path class="cls-22" d="M683.77,1401.16v-2a2,2,0,0,0,1.28.47,2,2,0,0,0,0-4,2,2,0,0,0-1.28.47v-2.49h-11.4c1.84-4.83,6.44-5.69,9.24-5.69,6.26,0,8.91,5.48,8.91,10.55v6.24h-3.4Z"/><path class="cls-22" d="M672.37,1393.56h11.4v2.49a2,2,0,0,1,1.28-.47,2,2,0,0,1,0,4,2,2,0,0,1-1.28-.47v2l3.35,3.5h3.4v4.28l-11.2,8v-9.79s-7.76.48-7.76-8.7A13.5,13.5,0,0,1,672.37,1393.56Z"/><path class="cls-23" d="M677.26,1397.16a.53.53,0,0,0,.53.54.54.54,0,0,0,0-1.07A.53.53,0,0,0,677.26,1397.16Z"/><path class="cls-23" d="M674.5,1397.16a.54.54,0,1,0,.54-.53A.54.54,0,0,0,674.5,1397.16Z"/><path class="cls-24" d="M677.43,1401.72a3,3,0,0,1-2.22,0"/><line class="cls-22" x1="451.11" y1="1345.68" x2="461.2" y2="1328.82"/><line class="cls-22" x1="451.11" y1="1436.73" x2="451.11" y2="1297.11"/><ellipse class="cls-22" cx="451.11" cy="1293.06" rx="29.98" ry="69.76"/><polyline class="cls-22" points="1291.02 1377.02 1291.02 1304.28 1274.48 1287.74"/><line class="cls-22" x1="1291.02" y1="1304.27" x2="1307.94" y2="1287.36"/><line class="cls-22" x1="1300.4" y1="1294.9" x2="1284.3" y2="1278.8"/><circle class="cls-22" cx="1291.02" cy="1265.64" r="58.13"/><polyline class="cls-22" points="858.32 1403.27 879.68 1424.64 858.32 1446"/><line class="cls-22" x1="1079.23" y1="1490.47" x2="788.74" y2="1490.47"/><path class="cls-22" d="M920.68,1449.43c16.92-8.08,23.58-25.77,23.58-44.49l-23.58-7.29-23.58,7.29C897.1,1423.66,903.75,1441.35,920.68,1449.43Z"/><rect class="cls-22" x="913.19" y="1418.8" width="14.98" height="12.39"/><path class="cls-22" d="M915,1418.81v-4.45a5.73,5.73,0,0,1,11.45,0"/><polyline class="cls-22" points="1079.22 1425.6 1075.33 1432.1 1079.35 1450.6 1079.22 1490.82 1082.69 1490.82 1090.71 1441.35 1111.77 1490.82 1115.11 1490.82 1098.29 1421.18 1082.69 1419.8"/><path class="cls-22" d="M1120.46,1495.84a5.18,5.18,0,1,1-5.18-5.19A5.18,5.18,0,0,1,1120.46,1495.84Z"/><circle class="cls-22" cx="1081.02" cy="1495.67" r="5.18"/><polyline class="cls-22" points="1088.82 1393.52 1082.69 1395.77 1082.69 1419.8 1098.29 1421.18 1098.62 1411.6 1101.85 1411.6 1101.85 1402.79 1102.18 1395.6 1095.72 1391.28"/><path class="cls-22" d="M1122.09,1386a3.85,3.85,0,1,0-5.1,3.63l-.87,15.29-13.94-9.31-.33,7.19,19.7,11-1.74-24.27A3.85,3.85,0,0,0,1122.09,1386Z"/><path class="cls-22" d="M1088.82,1388.06a9.85,9.85,0,1,1,12.78-9.65"/><path class="cls-22" d="M1087.47,1369.73a6,6,0,0,0-9.64,1.4c-2.17,4.06,1.34,13.92-1.56,16.82,0,0,4.51,0,4.51-6.63,0-1.45,0-10.08,4.4-10.08"/><path class="cls-22" d="M1082,1419.25a4,4,0,0,0-1.38.32l-8.48-14.09,10.6-2.49v-7.22l-18.73,7,14.78,18.46a4,4,0,0,0-.45,2,3.84,3.84,0,1,0,3.66-4Z"/><path class="cls-22" d="M1100.89,1378.31a2.71,2.71,0,0,0-.4,0,8,8,0,0,0-15.23,0l-.3,0a2.68,2.68,0,0,0,0,5.35,2.58,2.58,0,0,0,.39,0,8,8,0,0,0,3.47,4.16v7.5a3.45,3.45,0,0,0,3.45,3.45h0a3.46,3.46,0,0,0,3.45-3.45v-6.92a8.09,8.09,0,0,0,4.68-4.75,2.63,2.63,0,0,0,.49.05,2.68,2.68,0,1,0,0-5.35Z"/><path class="cls-23" d="M1090.67,1378.58a.75.75,0,0,1-.75.74.74.74,0,0,1-.74-.74.75.75,0,0,1,.74-.75A.76.76,0,0,1,1090.67,1378.58Z"/><path class="cls-23" d="M1096,1378.58a.75.75,0,0,1-.75.74.74.74,0,0,1-.74-.74.75.75,0,0,1,.74-.75A.76.76,0,0,1,1096,1378.58Z"/><path class="cls-23" d="M1092.66,1384.48a4.08,4.08,0,0,0,2.43-.79h-4.87A4.11,4.11,0,0,0,1092.66,1384.48Z"/><polyline class="cls-22" points="2418.85 1374.98 2409.89 1388.92 2395.95 1379.96"/><polyline class="cls-22" points="2251.8 1418.73 2240.08 1407.01 2228.37 1418.73"/><path class="cls-22" d="M2376.11,1426.29a69.25,69.25,0,0,1-135.8-3.19c-1.17-10.19-.23-16.09-.23-16.09"/><path class="cls-22" d="M2240.31,1399.2a69.26,69.26,0,0,1,136.44,0,57.68,57.68,0,0,1,.93,7.77c.15,2.65,0,6.88,0,6.88"/><line class="cls-22" x1="1810.26" y1="1469.39" x2="2067.02" y2="1469.39"/><line class="cls-22" x1="1809.21" y1="1482.77" x2="2067.02" y2="1482.77"/><line class="cls-22" x1="1809.21" y1="1496.15" x2="2067.02" y2="1496.15"/><line class="cls-22" x1="1810.26" y1="1509.53" x2="2067.02" y2="1509.53"/><line class="cls-22" x1="1809.21" y1="1522.91" x2="2067.02" y2="1522.91"/><line class="cls-22" x1="1697.53" y1="1469.39" x2="1483.45" y2="1469.39"/><line class="cls-22" x1="1698.58" y1="1482.77" x2="1490.44" y2="1482.77"/><line class="cls-22" x1="1698.58" y1="1496.15" x2="1496.13" y2="1496.15"/><line class="cls-22" x1="1697.53" y1="1509.53" x2="1500.65" y2="1509.53"/><line class="cls-22" x1="1698.58" y1="1522.91" x2="1503.99" y2="1522.91"/><polyline class="cls-22" points="1506.47 1536.3 1819.5 1536.3 1847.82 1564.62 2071.61 1564.62"/><polyline class="cls-22" points="1507.89 1549.68 1809.91 1549.68 1824.18 1563.95"/><path class="cls-22" d="M1698.58,1372.33v-30a4.54,4.54,0,0,1,4.5-4.68h101.63a4.49,4.49,0,0,1,4.5,4.49v180.11a4.5,4.5,0,0,1-4.5,4.5H1703.08a4.5,4.5,0,0,1-4.5-4.5V1379"/><path class="cls-22" d="M1763.66,1347.5l-1,2.55a3.2,3.2,0,0,1-3,2h-12.23a3.22,3.22,0,0,1-3-2l-1-2.55a3.21,3.21,0,0,0-3-2h-34.2v163h94.55v-163h-34.2A3.21,3.21,0,0,0,1763.66,1347.5Z"/><path class="cls-22" d="M1756.15,1346.2a2.58,2.58,0,1,1-2.58-2.57A2.58,2.58,0,0,1,1756.15,1346.2Z"/><line class="cls-22" x1="2067.02" y1="1456.4" x2="1756.15" y2="1456.4"/><polyline class="cls-22" points="1777.51 1477.77 1756.15 1456.4 1777.51 1435.04"/><path class="cls-22" d="M1764.26,1520.19H1748a2.58,2.58,0,0,1-2.58-2.57h0a2.58,2.58,0,0,1,2.58-2.57h16.22a2.57,2.57,0,0,1,2.57,2.57h0A2.57,2.57,0,0,1,1764.26,1520.19Z"/><path class="cls-22" d="M1666.74,1464a2.77,2.77,0,1,1-1.91,0"/><path class="cls-22" d="M1659.2,1464a2.76,2.76,0,1,1-1.9,0"/><path class="cls-22" d="M1672.62,1376.36a17.8,17.8,0,1,0-27.48-14.94v22.64"/><line class="cls-22" x1="1645.72" y1="1397.01" x2="1653.82" y2="1397.01"/><path class="cls-22" d="M1646.3,1413.88a16.83,16.83,0,0,0,0,4.66c1.52,11.64,4.09,27.56,4.09,27.56h23.28s2.56-15.92,4.08-27.56-8.33-15-8.33-15l2.1-17.28"/><path class="cls-22" d="M1652.52,1386.3l2.1,17.28a13.55,13.55,0,0,0-7.21,6.63"/><path class="cls-25" d="M1698.47,1372.33a3.06,3.06,0,0,0-1.86,5.51l-9,16.52c-5.29-10.14-11.58-18.73-21.81-20.42l0-2.39s7.76.32,7.76-8.74c0-9.91-10.76-10.81-13.14-10a3,3,0,0,0-2.29,3.27v6.93c-1.72-1.36-3.24.29-3.24,1.7s.63,2.42,1.79,2.42,1.45-.68,1.45-.68l.17,7.48c-8.12,1.23-11.39,6.8-16,15-5.27,9.37-7.25,11.49-5.2,14.49,1.81,2.65,10.55,11.78,12.6,13.9a3.07,3.07,0,1,0,2.7-1.6,3,3,0,0,0-1.68.5c-1.46-2.71-6.88-12.79-7.76-14.63l9.22-15.37h19.32l17.57,15.52,9.11-23.36h.33a3.07,3.07,0,0,0,0-6.14Z"/><path class="cls-22" d="M1659.19,1464.21s-.07,2.14-.94,2.14-.93-2.14-.93-2.14l-1.54-18.11h4.94Z"/><path class="cls-22" d="M1666.72,1464.21s-.16,2.14-.94,2.14-.93-2.14-.93-2.14l-1.54-18.11h4.94Z"/><path class="cls-23" d="M1667.11,1359.4a.7.7,0,0,1-1.4,0,.7.7,0,0,1,1.4,0Z"/><path class="cls-23" d="M1670.19,1359.4a.7.7,0,1,1-.7-.7A.7.7,0,0,1,1670.19,1359.4Z"/><path class="cls-26" d="M1670.28,1365.23a6,6,0,0,1-2.54.45"/><line class="cls-22" x1="1819.63" y1="1536.3" x2="2067.02" y2="1536.3"/><line class="cls-22" x1="1833.04" y1="1549.68" x2="2067.02" y2="1549.68"/><line class="cls-22" x1="1570.88" y1="1469.39" x2="1570.88" y2="1356.4"/><line class="cls-22" x1="1570.88" y1="1399.12" x2="1587.8" y2="1382.2"/><line class="cls-22" x1="1570.88" y1="1381.1" x2="1553.97" y2="1364.19"/><path class="cls-22" d="M1599.49,1342.72a33.59,33.59,0,1,0-57.21,0,42.29,42.29,0,1,0,57.21,0Z"/><path class="cls-22" d="M2235.68,1303.44c59.43-39.78,140.16-23.8,179.94,35.64h86.76"/><path class="cls-22" d="M2380,1519c-59.44,39.78-140.16,23.8-179.95-35.64q-2.25-3.36-4.26-6.81"/><polyline class="cls-22" points="2414.29 1461.46 2448.6 1461.46 2450.65 1461.46 2481.36 1461.46 2484.36 1461.46 2486.99 1461.46 2869.53 1461.46"/><path class="cls-22" d="M2414.29,1461.46a117.72,117.72,0,0,1-223.8-59.62H2072.43v-43"/><path class="cls-22" d="M2358.06,1304.78a117.91,117.91,0,0,0-144.41,35.82"/><path class="cls-22" d="M2330.72,1514.07a105.71,105.71,0,1,1,79.17-126.81"/><path class="cls-22" d="M2360,1489.11a93.71,93.71,0,1,1,25.74-130"/><path class="cls-22" d="M2239.93,1456.69a81.71,81.71,0,0,1,135.8-90.91"/><line class="cls-22" x1="2405.75" y1="1476.58" x2="2862.11" y2="1476.58"/><line class="cls-22" x1="2394.57" y1="1490.83" x2="2855.13" y2="1490.83"/><polyline class="cls-22" points="2849.13 1505.08 2655.64 1505.08 2635.43 1505.07 2615.89 1505.08 2379.36 1505.08"/><polyline class="cls-22" points="2193.19 1547.84 2656.49 1547.84 2678.19 1547.84 2840.87 1547.84"/><polyline class="cls-22" points="2379.99 1519.33 2627.53 1519.33 2777.16 1519.33 2846.09 1519.33"/><polyline class="cls-22" points="2351.6 1533.59 2623.15 1533.59 2683.52 1533.59 2840.87 1533.59"/><line class="cls-22" x1="2189.74" y1="1533.59" x2="2263.99" y2="1533.59"/><line class="cls-22" x1="2184.46" y1="1519.33" x2="2236.14" y2="1519.33"/><line class="cls-22" x1="2177.1" y1="1505.08" x2="2217.77" y2="1505.08"/><line class="cls-22" x1="2167.19" y1="1490.83" x2="2205.41" y2="1490.83"/><line class="cls-22" x1="2154.73" y1="1476.58" x2="2195.78" y2="1476.58"/><line class="cls-22" x1="2135.36" y1="1462.33" x2="2201.18" y2="1462.33"/><polyline class="cls-22" points="2414.29 1443.28 2450.65 1443.28 2482.78 1443.28 2587.34 1443.28"/><line class="cls-22" x1="2631.68" y1="1443.28" x2="2882.09" y2="1443.28"/><line class="cls-22" x1="2090.8" y1="1444.15" x2="2194.88" y2="1444.15"/><polyline class="cls-22" points="2625.14 1425.1 2501.56 1425.1 2455.37 1425.1 2417 1425.1"/><line class="cls-22" x1="1981.06" y1="1425.97" x2="2191.31" y2="1425.97"/><path class="cls-22" d="M2067,1456.4a114.6,114.6,0,0,1,114.47,114.47"/><path class="cls-22" d="M2195.26,1570.8A128.41,128.41,0,0,0,2067,1442.54H1875.28"/><path class="cls-22" d="M2067,1469.39a101.21,101.21,0,0,1,101.09,101.09"/><path class="cls-22" d="M2067,1482.77a87.81,87.81,0,0,1,87.71,87.71"/><path class="cls-22" d="M2067,1496.15a74.41,74.41,0,0,1,74.32,74.33"/><path class="cls-22" d="M2067,1509.53a61,61,0,0,1,60.94,60.94"/><path class="cls-22" d="M2067,1522.91a47.61,47.61,0,0,1,47.56,47.56"/><path class="cls-22" d="M2067,1536.3a34.21,34.21,0,0,1,34.18,34.17"/><path class="cls-22" d="M2067,1549.68a20.81,20.81,0,0,1,20.79,20.79"/><path class="cls-22" d="M2840.87,1563.52c0-104,84.29-188.26,188.26-188.26H3228.8"/><path class="cls-22" d="M2857.16,1563.52c0-94.82,77.15-172,172-172h304.38"/><path class="cls-22" d="M3453.52,1407.85H3029.13c-85.84,0-155.67,69.83-155.67,155.67"/><polyline class="cls-22" points="2603.77 1403.74 2625.14 1425.1 2603.77 1446.47"/><line class="cls-22" x1="2565" y1="1339.08" x2="2670.49" y2="1339.08"/><polygon class="cls-22" points="1873.1 1456.4 1852.38 1456.4 1848.01 1428.88 1877.47 1428.88 1873.1 1456.4"/><line class="cls-22" x1="1862.74" y1="1428.88" x2="1862.74" y2="1388.45"/><path class="cls-22" d="M1888,1386.05a22.34,22.34,0,0,0-20.39,20.39,22.34,22.34,0,0,0,20.39-20.39Z"/><line class="cls-22" x1="1862.74" y1="1411.31" x2="1877.81" y2="1396.24"/><path class="cls-22" d="M1837.48,1386.05a22.32,22.32,0,0,1,20.38,20.39,22.34,22.34,0,0,1-20.38-20.39Z"/><path class="cls-22" d="M1862.74,1372.65a22.35,22.35,0,0,1,0,28.83,22.32,22.32,0,0,1,0-28.83Z"/><line class="cls-22" x1="1862.74" y1="1411.31" x2="1847.67" y2="1396.24"/><circle class="cls-22" cx="2533.69" cy="1338.66" r="31.31" transform="translate(-319.42 1071.5) rotate(-22.5)"/><polyline class="cls-22" points="2552.04 1327.56 2535.67 1343.93 2530.05 1338.3 2523.84 1344.51 2518.59 1339.26 2502.38 1339.26"/><polyline class="cls-22" points="2552.04 1334.85 2552.04 1327.56 2544.75 1327.56"/><text class="cls-27" transform="translate(2524.02 1329.52)">$</text><circle class="cls-22" cx="1753.9" cy="1213.96" r="31.31"/><polyline class="cls-22" points="1745.03 1222.18 1745.03 1214.56 1736.92 1214.56 1736.92 1221.05 1723.39 1221.05"/><polyline class="cls-22" points="1749.9 1222.18 1749.9 1206.94 1758.02 1206.94 1758.02 1222.18"/><polyline class="cls-22" points="1762.88 1222.18 1762.88 1200.83 1771 1200.83 1771 1221.05 1784.24 1221.05"/><path class="cls-22" d="M2298.17,1390.75a7.12,7.12,0,1,1-7.11-7.12A7.11,7.11,0,0,1,2298.17,1390.75Z"/><path class="cls-22" d="M2278.94,1410a12.12,12.12,0,1,1,24.23,0"/><path class="cls-22" d="M2332.48,1421.79a7.12,7.12,0,1,1-7.12-7.11A7.11,7.11,0,0,1,2332.48,1421.79Z"/><path class="cls-22" d="M2313.25,1441a12.12,12.12,0,1,1,24.23,0"/><path class="cls-22" d="M2305.24,1390.07h9.44a10.69,10.69,0,0,1,10.68,10.69v7"/><path class="cls-22" d="M2291.06,1414v9.44a10.69,10.69,0,0,0,10.68,10.69h7"/><polyline class="cls-22" points="2283.72 1421.32 2291.06 1413.98 2298.39 1421.32"/><polyline class="cls-22" points="2332.7 1400.95 2325.36 1408.29 2318.03 1400.95"/><line class="cls-22" x1="1085.97" y1="1476.11" x2="1105.51" y2="1476.11"/><line class="cls-22" x1="1082.69" y1="1490.47" x2="1111.77" y2="1490.47"/><line class="cls-22" x1="1111.94" y1="1476.11" x2="1153.08" y2="1476.11"/><line class="cls-22" x1="1115.39" y1="1490.47" x2="1146.35" y2="1490.47"/><polygon class="cls-25" points="2087.84 1263.11 2044.19 1263.11 2044.19 1199.53 2076.83 1199.53 2087.84 1210.54 2087.84 1263.11"/><polyline class="cls-25" points="2055.38 1199.53 2055.38 1188.33 2088.03 1188.33 2099.03 1199.34 2099.03 1205.03 2099.03 1212.34 2099.03 1251.91"/><polygon class="cls-25" points="2076.83 1210.54 2087.84 1210.54 2076.83 1199.53 2076.83 1210.54"/><line class="cls-25" x1="2053.11" y1="1219.32" x2="2076.83" y2="1219.32"/><line class="cls-25" x1="2053.11" y1="1229.93" x2="2076.83" y2="1229.93"/><line class="cls-25" x1="2053.11" y1="1240.54" x2="2076.83" y2="1240.54"/><line class="cls-25" x1="2053.11" y1="1251.15" x2="2076.83" y2="1251.15"/><circle class="cls-22" cx="77.8" cy="1401.33" r="22.97"/><path class="cls-22" d="M125.35,1429.75a2.82,2.82,0,1,1-2.82,2.82A2.82,2.82,0,0,1,125.35,1429.75Z"/><path class="cls-22" d="M125.35,1365.34a2.82,2.82,0,1,1-2.82,2.82A2.82,2.82,0,0,1,125.35,1365.34Z"/><path class="cls-22" d="M169.6,1429.75a2.82,2.82,0,1,1-2.82,2.82A2.82,2.82,0,0,1,169.6,1429.75Z"/><path class="cls-22" d="M147.47,1429.75a2.82,2.82,0,1,1-2.82,2.82A2.82,2.82,0,0,1,147.47,1429.75Z"/><path class="cls-22" d="M147.47,1364.72a2.83,2.83,0,1,1-2.82,2.82A2.82,2.82,0,0,1,147.47,1364.72Z"/><path class="cls-22" d="M169.6,1365.34a2.82,2.82,0,1,1-2.82,2.82A2.82,2.82,0,0,1,169.6,1365.34Z"/><path class="cls-22" d="M138.89,1386h28.5a0,0,0,0,1,0,0v16.33a12.17,12.17,0,0,1-12.17,12.17h-4.16a12.17,12.17,0,0,1-12.17-12.17V1386A0,0,0,0,1,138.89,1386Z" transform="translate(-1247.08 1553.36) rotate(-90)"/><path class="cls-22" d="M138.75,1413.62a13.4,13.4,0,0,1-13.4-13.4h0a13.4,13.4,0,0,1,13.4-13.4"/><line class="cls-22" x1="147.47" y1="1400.22" x2="167.39" y2="1400.22"/><path class="cls-23" d="M132.48,1403.92a1.14,1.14,0,1,1-1.14,1.14A1.14,1.14,0,0,1,132.48,1403.92Z"/><path class="cls-23" d="M132.48,1396.51a1.14,1.14,0,1,0-1.14-1.14A1.14,1.14,0,0,0,132.48,1396.51Z"/><polyline class="cls-22" points="138.89 1385.97 138.89 1381.69 127.56 1370.37"/><polyline class="cls-22" points="138.89 1414.47 138.89 1418.74 127.56 1430.07"/><polyline class="cls-22" points="156.06 1385.97 156.06 1381.69 167.39 1370.37"/><polyline class="cls-22" points="156.06 1414.47 156.06 1418.74 167.39 1430.07"/><line class="cls-22" x1="147.47" y1="1385.97" x2="147.47" y2="1370.37"/><line class="cls-22" x1="147.47" y1="1429.75" x2="147.47" y2="1414.47"/><line class="cls-22" x1="125.35" y1="1402.93" x2="115.76" y2="1402.93"/><line class="cls-22" x1="125.35" y1="1397.99" x2="115.76" y2="1397.99"/><line class="cls-22" x1="85.01" y1="1408.54" x2="70.6" y2="1394.13"/><line class="cls-22" x1="70.6" y1="1408.54" x2="85.01" y2="1394.13"/><circle class="cls-22" cx="387.04" cy="1377.4" r="31.72"/><polygon class="cls-22" points="387.04 1354.15 366.46 1389.8 407.62 1389.8 387.04 1354.15"/><path class="cls-23" d="M386.13,1383.71a1.14,1.14,0,0,1-.37-.89,1.12,1.12,0,0,1,.37-.84,1.32,1.32,0,0,1,.93-.36,1.23,1.23,0,0,1,.91.36,1.15,1.15,0,0,1,.36.84,1.17,1.17,0,0,1-.36.89,1.25,1.25,0,0,1-.91.34A1.35,1.35,0,0,1,386.13,1383.71Z"/><line class="cls-22" x1="387.04" y1="1366.74" x2="387.04" y2="1378.85"/><line class="cls-22" x1="637.35" y1="1281.48" x2="637.35" y2="1206.24"/><path class="cls-22" d="M621.41,1184.9a12.1,12.1,0,0,1,21.47-7.67"/><polyline class="cls-22" points="642.34 1185.17 644.35 1187.18 648.91 1182.61"/><path class="cls-22" d="M640.78,1165.52a7.27,7.27,0,1,1-7.26-7.26A7.26,7.26,0,0,1,640.78,1165.52Z"/><path class="cls-22" d="M653.29,1184.9a7.67,7.67,0,1,1-7.67-7.67A7.67,7.67,0,0,1,653.29,1184.9Z"/><circle class="cls-22" cx="637.35" cy="1175.41" r="31.22"/><line class="cls-22" x1="451.11" y1="1328.77" x2="439.29" y2="1309.05"/><line class="cls-22" x1="725.79" y1="1353.75" x2="786.69" y2="1294.75"/><circle class="cls-22" cx="127.54" cy="1175.32" r="31.21" transform="translate(-1007.12 843.38) rotate(-67.5)"/><path class="cls-23" d="M122.14,1163.24l4.47,1.23a3.2,3.2,0,0,1-3.08,1.32C121.73,1165.37,122.14,1163.24,122.14,1163.24Z"/><path class="cls-23" d="M133.25,1163.24l-4.47,1.23a3.2,3.2,0,0,0,3.08,1.32C133.65,1165.37,133.25,1163.24,133.25,1163.24Z"/><path class="cls-26" d="M127.62,1172.55c2.21,0,3.4-.61,4-2.27.83-2.27-1.8-2.27-4-2.27s-4.84,0-4,2.27C124.21,1171.94,125.4,1172.55,127.62,1172.55Z"/><path class="cls-22" d="M113.72,1188.37a13.91,13.91,0,0,1,10-13.34c-3.32-1.58-5.29-5.17-5.29-9.36,0-8.22,1.7-10,7.85-10.2v-.77c0-.27.55-.49.82-.49h1.22c.27,0,.8.22.8.49v.77c8,.26,7.74,3.33,7.74,10.2,0,4.19-2,7.78-5.28,9.36a13.92,13.92,0,0,1,4.61,2.37"/><rect class="cls-22" x="126.61" y="1155.02" width="2.17" height="0.47"/><path class="cls-22" d="M145,1183.34a6.41,6.41,0,1,1-6.41-6.41A6.39,6.39,0,0,1,145,1183.34Z"/><line class="cls-22" x1="147.76" y1="1192.5" x2="143.12" y2="1187.87"/><line class="cls-22" x1="136.95" y1="1181.7" x2="140.22" y2="1184.97"/><line class="cls-22" x1="140.22" y1="1181.7" x2="136.95" y2="1184.97"/><polyline class="cls-22" points="756.48 1294.75 786.69 1294.75 786.69 1324.96"/><line class="cls-22" x1="852.58" y1="1262" x2="953.76" y2="1262"/><circle class="cls-22" cx="821.37" cy="1262" r="31.21" transform="translate(-658.89 1537.9) rotate(-67.5)"/><path class="cls-22" d="M804.76,1245.84a31.67,31.67,0,0,1-7.29-3.9"/><path class="cls-22" d="M832.32,1247.56a50.09,50.09,0,0,1-21.57.07"/><path class="cls-28" d="M845.28,1241.94a31.55,31.55,0,0,1-7,3.78"/><path class="cls-28" d="M838.36,1278.3a31.82,31.82,0,0,1,6.92,3.76"/><path class="cls-22" d="M810.66,1276.38a50,50,0,0,1,21.74.07"/><path class="cls-22" d="M797.47,1282.06a31.56,31.56,0,0,1,7.23-3.88"/><path class="cls-22" d="M808.16,1243.65a47,47,0,0,1,4.61-11.7"/><path class="cls-22" d="M806.91,1274.51a79.43,79.43,0,0,1,0-24.75"/><path class="cls-22" d="M812.77,1292.21a46.32,46.32,0,0,1-4.58-11.6"/><path class="cls-22" d="M834.54,1280.54a47.23,47.23,0,0,1-4.56,11.51"/><path class="cls-22" d="M835.89,1249.83a79.71,79.71,0,0,1-.07,24.6"/><path class="cls-22" d="M830,1231.78a47.12,47.12,0,0,1,4.66,11.92"/><path class="cls-22" d="M838.46,1246.75a3.13,3.13,0,1,1-3.12-3.12A3.13,3.13,0,0,1,838.46,1246.75Z"/><path class="cls-22" d="M838.46,1277.52a3.13,3.13,0,1,1-3.12-3.13A3.12,3.12,0,0,1,838.46,1277.52Z"/><circle class="cls-22" cx="807.75" cy="1246.75" r="3.13"/><circle class="cls-22" cx="807.75" cy="1277.52" r="3.13"/><line class="cls-22" x1="958.36" y1="1329.16" x2="891.19" y2="1262"/><polyline class="cls-22" points="962.92 1262.7 967.12 1266.9 976.66 1257.36"/><path class="cls-22" d="M985.82,1262.13a16,16,0,1,1-16-16A16,16,0,0,1,985.82,1262.13Z"/><polyline class="cls-22" points="1746.7 1303.4 1750.9 1307.6 1760.44 1298.06"/><circle class="cls-22" cx="1753.57" cy="1302.83" r="16.03"/><circle class="cls-22" cx="969.79" cy="1340.59" r="16.17" transform="translate(-557.75 1976.44) rotate(-76.72)"/><line class="cls-22" x1="974.86" y1="1345.67" x2="964.72" y2="1335.52"/><line class="cls-22" x1="964.72" y1="1345.67" x2="974.86" y2="1335.52"/><line class="cls-22" x1="1753.57" y1="1286.63" x2="1753.57" y2="1245.28"/><line class="cls-22" x1="1753.57" y1="1337.64" x2="1753.57" y2="1318.85"/><line class="cls-22" x1="1765.78" y1="1292.45" x2="1854.25" y2="1203.98"/><path class="cls-22" d="M1872.51,1200.87a15.15,15.15,0,1,1-15.15-15.15"/><path class="cls-22" d="M1861.54,1200.87a4.19,4.19,0,1,1-4.18-4.18A4.18,4.18,0,0,1,1861.54,1200.87Z"/><path class="cls-22" d="M1878.83,1200.87a6.24,6.24,0,0,1,5.53-6.2,27.54,27.54,0,0,0-3.52-8.51,6.24,6.24,0,0,1-8.77-8.77,27.54,27.54,0,0,0-8.51-3.52,6.24,6.24,0,0,1-12.4,0,27.54,27.54,0,0,0-8.51,3.52,6.24,6.24,0,0,1-8.77,8.77,27.56,27.56,0,0,0-3.53,8.51,6.24,6.24,0,0,1,0,12.4,27.56,27.56,0,0,0,3.53,8.51,6.24,6.24,0,0,1,8.77,8.77,27.56,27.56,0,0,0,8.51,3.53,6.24,6.24,0,0,1,12.4,0,27.56,27.56,0,0,0,8.51-3.53,6.24,6.24,0,0,1,8.77-8.77,27.54,27.54,0,0,0,3.52-8.51A6.24,6.24,0,0,1,1878.83,1200.87Z"/><path class="cls-22" d="M1886.88,1229.9a10.83,10.83,0,1,1,10.83,10.82"/><path class="cls-22" d="M1901.89,1229.9a4.18,4.18,0,1,1-4.18-4.18A4.18,4.18,0,0,1,1901.89,1229.9Z"/><path class="cls-22" d="M1913.06,1229.9a4.45,4.45,0,0,1,4-4.43,19.71,19.71,0,0,0-2.52-6.09,4.45,4.45,0,0,1-6.26-6.26,19.71,19.71,0,0,0-6.09-2.52,4.46,4.46,0,0,1-8.86,0,19.55,19.55,0,0,0-6.08,2.52,4.46,4.46,0,0,1-6.27,6.26,19.71,19.71,0,0,0-2.52,6.09,4.46,4.46,0,0,1,0,8.86,19.75,19.75,0,0,0,2.52,6.08,4.46,4.46,0,0,1,6.27,6.27,19.8,19.8,0,0,0,6.08,2.52,4.46,4.46,0,0,1,8.86,0,20,20,0,0,0,6.09-2.52,4.46,4.46,0,0,1,6.26-6.27,19.75,19.75,0,0,0,2.52-6.08A4.46,4.46,0,0,1,1913.06,1229.9Z"/><line class="cls-25" x1="2043.33" y1="1229.9" x2="1901.89" y2="1229.9"/><path class="cls-22" d="M2097.23,1351.38H2046a1.81,1.81,0,0,1-1.8-1.81v-38.06h53a1.8,1.8,0,0,1,1.8,1.8v36.26A1.8,1.8,0,0,1,2097.23,1351.38Z"/><path class="cls-22" d="M2068.71,1311.51h-24.52v-5.11a2.13,2.13,0,0,1,2.13-2.13h17.53a2.14,2.14,0,0,1,1.91,1.2Z"/><polyline class="cls-22" points="2065.01 1335.14 2072.46 1327.74 2079.85 1335.14"/><line class="cls-22" x1="2072.43" y1="1358.84" x2="2072.43" y2="1327.95"/><circle class="cls-22" cx="1445.2" cy="1213.45" r="31.06" transform="translate(-363.37 674.8) rotate(-23.43)"/><line class="cls-22" x1="1445.2" y1="1213.45" x2="1445.2" y2="1182.41"/><line class="cls-22" x1="1445.2" y1="1213.45" x2="1467.16" y2="1235.37"/><line class="cls-22" x1="1445.2" y1="1213.45" x2="1474.18" y2="1202.34"/><line class="cls-22" x1="1414.14" y1="1266.52" x2="1476.26" y2="1266.52"/><line class="cls-22" x1="1414.14" y1="1286.96" x2="1476.26" y2="1286.96"/><line class="cls-22" x1="1414.14" y1="1307.4" x2="1476.26" y2="1307.4"/><polyline class="cls-22" points="1493.05 1228.52 1485.65 1221.07 1493.05 1213.68"/><line class="cls-22" x1="1723.26" y1="1221.1" x2="1485.86" y2="1221.1"/><rect class="cls-29" x="2670.49" y="1231.11" width="97.36" height="172.89" rx="6.65"/><line class="cls-29" x1="2689.59" y1="1339.7" x2="2748.75" y2="1339.7"/><line class="cls-29" x1="2689.59" y1="1359.18" x2="2748.75" y2="1359.18"/><line class="cls-29" x1="2689.59" y1="1378.65" x2="2748.75" y2="1378.65"/><line class="cls-29" x1="2697.7" y1="1239.99" x2="2681.47" y2="1239.99"/><line class="cls-29" x1="2697.7" y1="1245.98" x2="2681.47" y2="1245.98"/><line class="cls-29" x1="2697.7" y1="1251.97" x2="2681.47" y2="1251.97"/><polygon class="cls-30" points="2719.17 1291.53 2699.47 1278.01 2719.17 1264.49 2738.87 1278.01 2719.17 1291.53"/><polyline class="cls-30" points="2738.87 1301.58 2719.17 1315.1 2699.47 1301.58 2699.47 1278.01"/><line class="cls-30" x1="2719.17" y1="1291.53" x2="2719.17" y2="1315.1"/><circle class="cls-22" cx="288.56" cy="1175.32" r="31.31" transform="translate(-184.54 61.4) rotate(-9.22)"/><ellipse class="cls-22" cx="288.56" cy="1175.32" rx="17.32" ry="8.44"/><path class="cls-22" d="M297,1175.32a8.44,8.44,0,1,1-8.44-8.44A8.43,8.43,0,0,1,297,1175.32Z"/><path class="cls-22" d="M288.56,1178.13a2.81,2.81,0,1,1,2.81-2.81"/><line class="cls-22" x1="288.47" y1="1425.5" x2="288.47" y2="1206.63"/><line class="cls-22" x1="257.25" y1="1175.32" x2="158.75" y2="1175.32"/><path class="cls-30" d="M2843.86,1328.82a24.19,24.19,0,0,1,9.64,3.3"/><path class="cls-30" d="M2828.39,1332.12c.24-.15.49-.29.74-.43a24.19,24.19,0,0,1,8.91-2.88"/><path class="cls-30" d="M2826.66,1389.89v12.29l-3.84,11.75v23.55a1.42,1.42,0,0,0,1.42,1.43h0a1.43,1.43,0,0,0,1.4-1.11l10.14-43.86"/><path class="cls-30" d="M2840.77,1393.94V1437a1.87,1.87,0,0,0,1.87,1.87h0a1.88,1.88,0,0,0,1.83-1.48l5.08-23.64-.94-12.69,1.08-7.16"/><path class="cls-30" d="M2825.76,1437.47a3.42,3.42,0,0,1,1.35,1.68,3.38,3.38,0,1,1-4.33-2"/><path class="cls-30" d="M2844.5,1437.34a3.38,3.38,0,1,1-5.44,1.92,3.33,3.33,0,0,1,1.71-2.28"/><path class="cls-30" d="M2850.84,1359.9a13.53,13.53,0,0,0-2.32-2.46h.08l4.9-25.24"/><path class="cls-30" d="M2828.39,1332.21l4.69,24.14h0a13.34,13.34,0,0,0-6.45,11.42v26.17h23l3.19-22.52a13.3,13.3,0,0,0,.52-3.65,13.64,13.64,0,0,0-.31-2.87"/><path class="cls-30" d="M2832.74,1313.89a7.89,7.89,0,0,1,14.3.16,8.1,8.1,0,0,0,1.49-.14"/><path class="cls-30" d="M2851.59,1331.22l1-15.22a11.65,11.65,0,0,0-23.3,0l1.05,15.13"/><path class="cls-30" d="M2870,1345.09l-16.51-13-1.31,7.19,10.22,5.88L2851.19,1360a3.43,3.43,0,0,0-1.17-.22,3.38,3.38,0,1,0,3.38,3.38,3.27,3.27,0,0,0,0-.44Z"/><path class="cls-30" d="M2829.72,1339.48l-1.33-7.27-14.15,7.18-4.33-20.43a3.29,3.29,0,0,0,.62-1.93,3.38,3.38,0,1,0-4,3.31l4.36,25.66Z"/><path class="cls-30" d="M2833.37,1313.91a1.36,1.36,0,0,0-.29,0,1.46,1.46,0,1,0,0,2.91h0a7.86,7.86,0,0,0,4.92,6.52l0,5.37s0,.62,0,.71a2.92,2.92,0,0,0,5.84,0c0-.09,0-.86,0-.86l0-5.22a7.88,7.88,0,0,0,4.91-6.52h0a1.46,1.46,0,0,0,0-2.91l-.3,0"/><path class="cls-23" d="M2837.56,1316.36a.7.7,0,0,1-.7.71.71.71,0,0,1-.71-.71.7.7,0,0,1,.71-.7A.7.7,0,0,1,2837.56,1316.36Z"/><path class="cls-23" d="M2843.16,1316.36a.7.7,0,0,0,.7.71.71.71,0,0,0,.71-.71.7.7,0,0,0-.71-.7A.7.7,0,0,0,2843.16,1316.36Z"/><path class="cls-23" d="M2841.06,1320.83a4.79,4.79,0,0,0,2.72-.85h-5.44A4.79,4.79,0,0,0,2841.06,1320.83Z"/></g><circle class="cls-31" cx="334.87" cy="628.11" r="21.63"/><circle class="cls-31" cx="283.47" cy="628.11" r="21.63"/><circle class="cls-31" cx="232.07" cy="628.11" r="21.63"/><g class="cls-21"><polyline class="cls-32" points="192.24 296.82 213.68 275.39 235.1 296.83"/><polyline class="cls-32" points="443.87 266.81 465.31 288.23 486.73 266.79"/><path class="cls-32" d="M215.39,258.81C225.78,199.35,277.74,154,340.14,154S454.5,199.35,464.89,258.81c2.14,18.63.41,29.42.41,29.42"/><path class="cls-32" d="M464.89,302.52C454.5,362,402.53,407.34,340.14,407.34S225.78,362,215.39,302.52a105.24,105.24,0,0,1-1.71-14.22c-.28-4.84,0-12.58,0-12.58"/><line class="cls-32" x1="1934.73" y1="174.16" x2="1276.3" y2="174.16"/><line class="cls-32" x1="2444.2" y1="174.16" x2="2002.08" y2="174.16"/><line class="cls-32" x1="2431.34" y1="149.69" x2="1298.24" y2="149.69"/><line class="cls-32" x1="2420.86" y1="125.22" x2="1312.43" y2="125.22"/><line class="cls-32" x1="2412.53" y1="100.75" x2="1324.04" y2="100.75"/><line class="cls-32" x1="2400.52" y1="76.28" x2="1334.37" y2="76.28"/><polyline class="cls-32" points="2400.52 51.81 1894.18 51.81 1842.39 0.02 1344.69 0.02"/><polyline class="cls-32" points="2400.52 27.34 1911.72 27.34 1887.37 2.99"/><line class="cls-32" x1="2400.52" y1="2.87" x2="1887.49" y2="2.87"/><line class="cls-32" x1="1253.07" y1="197.91" x2="1992.78" y2="197.91"/><polyline class="cls-32" points="1953.71 158.84 1992.78 197.91 1953.71 236.98"/><line class="cls-32" x1="1893.95" y1="51.81" x2="1340.17" y2="51.81"/><line class="cls-32" x1="1869.43" y1="27.34" x2="1343.4" y2="27.34"/><path class="cls-32" d="M576.89,308.21A236.76,236.76,0,0,1,473.36,477.62c-108.69,72.76-256.31,43.53-329.07-65.17"/><path class="cls-32" d="M209.46,83.39c108.69-72.76,256.31-43.53,329.07,65.17q4.11,6.13,7.8,12.45"/><line class="cls-32" x1="146.73" y1="188.66" x2="-147.38" y2="188.66"/><path class="cls-32" d="M249.56,475.19c107.35,50.64,235.88,4.51,286.53-102.84s4.52-235.88-102.83-286.52S197.38,81.31,146.73,188.66"/><path class="cls-32" d="M299.56,92.45c103.85-24,207.88,40.93,231.9,144.78s-40.94,207.89-144.79,231.9-207.88-40.94-231.9-144.79"/><path class="cls-32" d="M246.09,138.1c78.52-52.56,185.16-31.44,237.73,47.08s31.44,185.17-47.08,237.73S251.57,454.35,199,375.83"/><path class="cls-32" d="M465.58,197.39A149.42,149.42,0,0,1,217.24,363.62"/><line class="cls-32" x1="162.35" y1="161.01" x2="-147.38" y2="161.01"/><line class="cls-32" x1="182.8" y1="134.95" x2="-147.38" y2="134.95"/><line class="cls-32" x1="210.61" y1="108.89" x2="-147.38" y2="108.89"/><line class="cls-32" x1="209.46" y1="82.83" x2="-147.38" y2="82.83"/><line class="cls-32" x1="261.36" y1="56.76" x2="-147.38" y2="56.76"/><line class="cls-32" x1="641.84" y1="30.7" x2="-147.38" y2="30.7"/><line class="cls-32" x1="646.68" y1="56.76" x2="421.59" y2="56.76"/><line class="cls-32" x1="654.14" y1="82.83" x2="472.52" y2="82.83"/><line class="cls-32" x1="664.81" y1="108.89" x2="506.11" y2="108.89"/><line class="cls-32" x1="680.85" y1="134.95" x2="528.71" y2="134.95"/><line class="cls-32" x1="697.97" y1="161.01" x2="546.33" y2="161.01"/><line class="cls-32" x1="722.69" y1="187.07" x2="536.45" y2="187.07"/><line class="cls-32" x1="146.73" y1="221.9" x2="-147.38" y2="221.9"/><line class="cls-32" x1="767.31" y1="220.32" x2="547.97" y2="220.32"/><line class="cls-32" x1="141.77" y1="255.15" x2="-152.34" y2="255.15"/><line class="cls-32" x1="900.42" y1="253.56" x2="554.5" y2="253.56"/><path class="cls-32" d="M893.86,253.56C753.82,253.56,640.3,140,640.3,0"/><path class="cls-32" d="M1147.43,0c0,140-113.53,253.56-253.57,253.56"/><path class="cls-32" d="M1169.35,0c0,140-113.53,253.56-253.57,253.56"/><path class="cls-32" d="M1191.27,0c0,140-113.52,253.56-253.56,253.56"/><path class="cls-32" d="M1213.19,0c0,140-113.52,253.56-253.56,253.56"/><path class="cls-32" d="M1235.12,0c0,140-113.53,253.56-253.57,253.56"/><path class="cls-32" d="M1257,0c0,140-113.53,253.56-253.57,253.56"/><path class="cls-32" d="M1279,0c0,140-113.52,253.56-253.56,253.56"/><path class="cls-32" d="M1300.88,0c0,140-113.52,253.56-253.56,253.56"/><path class="cls-32" d="M1322.81,0c0,140-113.53,253.56-253.57,253.56"/><path class="cls-32" d="M1344.73,0c0,140-113.53,253.56-253.56,253.56"/><path class="cls-32" d="M1125.48,0c0,127.71-103.9,231.62-231.62,231.62S662.25,127.71,662.25,0"/><path class="cls-32" d="M1103.53,0c0,115.61-94.06,209.67-209.67,209.67S684.19,115.61,684.19,0"/><path class="cls-32" d="M1081.59,0c0,103.51-84.22,187.72-187.73,187.72S706.14,103.51,706.14,0"/><path class="cls-32" d="M1059.64,0c0,91.41-74.37,165.78-165.78,165.78S728.09,91.41,728.09,0"/><path class="cls-32" d="M1037.69,0c0,79.31-64.52,143.83-143.83,143.83S750,79.31,750,0"/><path class="cls-32" d="M1015.74,0A122,122,0,0,1,893.86,121.88,122,122,0,0,1,772,0"/><path class="cls-32" d="M993.8,0a100.06,100.06,0,0,1-99.94,99.94A100.05,100.05,0,0,1,793.93,0"/><path class="cls-32" d="M971.85,0a78.08,78.08,0,0,1-78,78,78.08,78.08,0,0,1-78-78"/><path class="cls-32" d="M949.9,0a56.1,56.1,0,0,1-56,56,56.1,56.1,0,0,1-56-56"/><path class="cls-32" d="M928,0a34.14,34.14,0,0,1-34.1,34.1A34.13,34.13,0,0,1,859.77,0"/><path class="cls-32" d="M3086.66,2c0,190.14-154.13,344.27-344.26,344.27S2398.14,192.16,2398.14,2"/><path class="cls-32" d="M3056.87,2c0,173.4-141.07,314.47-314.47,314.47S2427.94,175.42,2427.94,2"/><path class="cls-32" d="M3027.07,2c0,157-127.7,284.67-284.67,284.67S2457.73,159,2457.73,2"/><path class="cls-32" d="M2997.27,2c0,140.54-114.33,254.88-254.87,254.88S2487.53,142.56,2487.53,2"/><path class="cls-32" d="M2967.48,2c0,124.11-101,225.08-225.08,225.08S2517.33,126.13,2517.33,2"/><path class="cls-32" d="M2937.68,2c0,107.68-87.6,195.28-195.28,195.28S2547.13,109.7,2547.13,2"/><path class="cls-32" d="M2907.88,2c0,91.25-74.23,165.48-165.48,165.48S2576.92,93.27,2576.92,2"/><path class="cls-32" d="M2878.08,2c0,74.82-60.86,135.69-135.68,135.69S2606.72,76.84,2606.72,2"/><path class="cls-32" d="M2848.29,2a105.89,105.89,0,1,1-211.77,0"/><path class="cls-32" d="M2818.49,2a76.09,76.09,0,1,1-152.18,0"/><path class="cls-32" d="M2788.69,2a46.29,46.29,0,0,1-92.58,0"/><line class="cls-32" x1="641.84" y1="4.64" x2="-147.38" y2="4.64"/></g></svg>