<svg xmlns="http://www.w3.org/2000/svg" viewBox="0 0 23.67 21.62"><defs><style>.cls-1{fill:#fff;}
</style></defs><g id="Capa_2" data-name="Capa 2"><g id="Capa_1-2" data-name="Capa 1">
<path class="cls-1" d="M6.07,8.24V6.74H7.85v1.5Zm0,5.32V8.65H7.85v4.91Z"/>
<path class="cls-1" d="M11.85,10.25a3.42,3.42,0,0,0-.94.11,1.09,1.09,0,0,0-.62.37v2.83H8.51V8.64h1.63v1a2.07,2.07,0,0,1,.65-.77,1.5,1.5,0,0,1,.83-.26h.23Z"/>
<path class="cls-1" d="M12.16,8.24V6.74h1.78v1.5Zm0,5.32V8.65h1.78v4.91Z"/>
<path class="cls-1" d="M16.57,13.65a3.87,3.87,0,0,1-1.26-.21,2.72,2.72,0,0,1-1.05-.61l.6-1.09a5.5,5.5,0,0,0,.89.47,2.15,2.15,0,0,0,.77.17.72.72,0,0,0,.29-.05.16.16,0,0,0,.09-.15.16.16,0,0,0-.07-.14.66.66,0,0,0-.21-.11l-.36-.12c-.39-.13-.71-.26-1-.37a1.49,1.49,0,0,1-.58-.43,1.07,1.07,0,0,1-.19-.67,1.54,1.54,0,0,1,.25-.88,1.79,1.79,0,0,1,.72-.6,2.67,2.67,0,0,1,1.14-.22,3.4,3.4,0,0,1,1,.15,2.75,2.75,0,0,1,1,.56l-.67,1.08a5.06,5.06,0,0,0-.79-.41,1.72,1.72,0,0,0-.58-.12.66.66,0,0,0-.21,0,.24.24,0,0,0-.13.08.23.23,0,0,0-.05.15.18.18,0,0,0,.07.15.73.73,0,0,0,.2.1l.36.12a6.24,6.24,0,0,1,1,.37,1.44,1.44,0,0,1,.6.45,1.15,1.15,0,0,1,.19.69,1.42,1.42,0,0,1-.55,1.19A2.38,2.38,0,0,1,16.57,13.65Z"/>
<path class="cls-1" d="M11.83,21.62a11.22,11.22,0,0,1-8-3.3L0,14.48l1.79-1.79,3.84,3.83a8.78,8.78,0,0,0,12.41,0l3.84-3.83,1.79,1.79-3.84,3.84A11.23,11.23,0,0,1,11.83,21.62Z"/>
<path class="cls-1" d="M18,5.1a8.78,8.78,0,0,0-12.41,0L1.79,8.94,0,7.15,3.84,3.31a11.31,11.31,0,0,1,16,0l3.84,3.84L21.88,8.94Z"/>
</g></g></svg>
