<svg id="Capa_1" data-name="Capa 1" xmlns="http://www.w3.org/2000/svg" xmlns:xlink="http://www.w3.org/1999/xlink" viewBox="0 0 180 250"><defs><style>.cls-1{fill:url(#Degradado_sin_nombre_2);}.cls-2{isolation:isolate;font-size:78.76px;fill:#078445;font-family:Lato-Black, Lato;font-weight:800;letter-spacing:-0.03em;}.cls-3{fill:url(#Degradado_sin_nombre_10);}</style><linearGradient id="Degradado_sin_nombre_2" x1="-4.43" y1="182.33" x2="172.72" y2="182.33" gradientTransform="matrix(1, 0, 0, -1, 0, 250)" gradientUnits="userSpaceOnUse"><stop offset="0" stop-color="#ffe2a0"/><stop offset="0.11" stop-color="#f2dd9b"/><stop offset="0.31" stop-color="#cfd28c"/><stop offset="0.58" stop-color="#96be76"/><stop offset="0.91" stop-color="#49a456"/><stop offset="1" stop-color="#329c4d"/></linearGradient><linearGradient id="Degradado_sin_nombre_10" x1="-1682.45" y1="-1324.67" x2="-1505.31" y2="-1324.67" gradientTransform="matrix(-1, 0.01, 0.01, 1, -1486.7, 1496.59)" gradientUnits="userSpaceOnUse"><stop offset="0" stop-color="#329c4d"/><stop offset="1" stop-color="#ffe2a0"/></linearGradient></defs><path class="cls-1" d="M136.37,72.42a65.68,65.68,0,0,0-92.87,0L14.79,101.13,1.37,87.71,30.08,59A84.67,84.67,0,0,1,149.8,59l28.71,28.71-13.42,13.42Z"/><text class="cls-2" transform="translate(64.39 139.52)">A</text><path class="cls-3" d="M43.58,154a65.67,65.67,0,0,0,92.87-.79l28.48-29,13.53,13.29-28.46,29a84.65,84.65,0,0,1-119.7,1L1.32,139,14.61,125.5Z"/></svg>