<svg id="Capa_1" data-name="Capa 1" xmlns="http://www.w3.org/2000/svg" xmlns:xlink="http://www.w3.org/1999/xlink" viewBox="0 0 180 250"><defs><style>.cls-1{fill:url(#Degradado_sin_nombre_47);}.cls-2{fill:none;}.cls-3{fill:#fff;}</style><linearGradient id="Degradado_sin_nombre_47" x1="194.14" y1="352.36" x2="444.2" y2="377.21" gradientTransform="translate(-240.11 -242.11)" gradientUnits="userSpaceOnUse"><stop offset="0" stop-color="#f6a200"/><stop offset="0.21" stop-color="#f4a605"/><stop offset="0.47" stop-color="#efb214"/><stop offset="0.74" stop-color="#e6c62c"/><stop offset="1" stop-color="#dbde49"/></linearGradient></defs><rect class="cls-1" x="-35.65" y="33.77" width="251.29" height="180" transform="translate(213.77 33.77) rotate(90)"/><rect class="cls-2" x="19.32" y="62.8" width="145.54" height="137.55"/><path class="cls-3" d="M92.09,243.93A79.92,79.92,0,0,1,35.2,220.4L7.91,193.1l12.75-12.75L48,207.65a62.48,62.48,0,0,0,88.28,0l27.3-27.3,12.75,12.75L149,220.4A79.91,79.91,0,0,1,92.09,243.93Z"/><path class="cls-3" d="M136.23,108.38a62.43,62.43,0,0,0-88.28,0l-27.29,27.3L7.91,122.93,35.2,95.63a80.47,80.47,0,0,1,113.78,0l27.3,27.3-12.75,12.75Z"/></svg>