<svg id="Capa_1" data-name="Capa 1" xmlns="http://www.w3.org/2000/svg" xmlns:xlink="http://www.w3.org/1999/xlink" viewBox="0 0 180 250"><defs><style>.cls-1{fill:url(#linear-gradient);}.cls-2{fill:#fff;}</style><linearGradient id="linear-gradient" x1="6.92" y1="205.76" x2="178.57" y2="38.9" gradientUnits="userSpaceOnUse"><stop offset="0" stop-color="#f28f1f"/><stop offset="0.22" stop-color="#f28c1f"/><stop offset="0.41" stop-color="#f08120"/><stop offset="0.59" stop-color="#ee6f22"/><stop offset="0.76" stop-color="#eb5525"/><stop offset="0.93" stop-color="#e73528"/><stop offset="1" stop-color="#e52629"/></linearGradient></defs><rect class="cls-1" width="180" height="250"/><path class="cls-2" d="M90.15,245.93a82.15,82.15,0,0,1-58.49-24.19L3.6,193.68l13.1-13.11,28.07,28.06a64.24,64.24,0,0,0,90.76,0l28.06-28.06,13.11,13.11-28.06,28.06A82.15,82.15,0,0,1,90.15,245.93Z"/><path class="cls-2" d="M135.53,111.12a64.17,64.17,0,0,0-90.76,0L16.7,139.18,3.6,126.08,31.66,98a82.71,82.71,0,0,1,117,0l28.06,28.07-13.11,13.1Z"/></svg>