<svg id="Capa_1" data-name="Capa 1" xmlns="http://www.w3.org/2000/svg" xmlns:xlink="http://www.w3.org/1999/xlink" viewBox="0 0 180 250"><defs><style>.cls-1{fill:url(#Degradado_sin_nombre_49);}.cls-2{fill:none;}.cls-3{fill:#fff;}</style><linearGradient id="Degradado_sin_nombre_49" x1="103.89" y1="-57.7" x2="77.48" y2="267.1" gradientTransform="translate(2 -1.2)" gradientUnits="userSpaceOnUse"><stop offset="0.17" stop-color="#c19e15"/><stop offset="0.38" stop-color="#949c1f"/><stop offset="0.86" stop-color="#229737"/><stop offset="1" stop-color="#00963e"/></linearGradient></defs><rect class="cls-1" y="-2.6" width="182.1" height="252.77" transform="translate(182.1 247.5) rotate(180)"/><rect class="cls-2" x="17.2" y="64.2" width="145.5" height="137.55"/><path class="cls-3" d="M90,245.3a79.9,79.9,0,0,1-56.9-23.5L5.8,194.5l12.8-12.7,27.3,27.3a62.5,62.5,0,0,0,88.2,0l27.3-27.3,12.8,12.7-27.3,27.3A79.9,79.9,0,0,1,90,245.3Z"/><path class="cls-3" d="M134.1,109.8a62.3,62.3,0,0,0-88.2,0L18.6,137.1,5.8,124.3,33.1,97a80.6,80.6,0,0,1,113.8,0l27.3,27.3-12.8,12.8Z"/></svg>